<svg xmlns="http://www.w3.org/2000/svg" width="250" height="250" viewBox="0 0 250 250">
<g>
<path d="M 215.02 114.86 C212.64,117.69 210.19,119.97 209.59,119.93 C208.99,119.89 205.80,119.03 202.50,118.01 C199.20,116.99 193.12,115.19 189.00,114.01 C166.11,107.46 168.07,108.44 153.50,96.19 C146.08,89.95 140.00,84.44 140.00,83.95 C140.00,83.46 142.59,81.16 145.75,78.83 C166.82,63.32 196.00,41.65 204.23,35.39 C209.58,31.33 214.36,28.00 214.86,28.00 C215.92,28.00 225.00,54.92 225.00,58.07 C225.00,59.26 223.63,66.81 221.96,74.84 L 218.93 89.44 L 221.11 91.08 L 223.29 92.73 L 220.11 95.08 L 216.92 97.43 L 221.49 100.88 L 218.56 103.94 C215.75,106.87 215.71,107.06 217.49,108.37 C219.25,109.66 219.12,110.00 215.02,114.86 ZM 54.82 116.08 C47.30,118.23 40.77,120.00 40.32,120.00 C39.87,120.00 37.54,117.72 35.14,114.94 C31.02,110.15 30.89,109.80 32.64,108.51 C34.42,107.21 34.38,107.03 31.76,104.28 L 29.03 101.42 L 33.18 97.26 L 30.08 95.05 L 26.97 92.84 L 29.10 91.12 L 31.24 89.39 L 24.70 57.62 L 29.56 42.81 C33.42,31.07 34.80,28.00 36.21,28.00 C37.20,28.00 38.00,28.36 38.00,28.79 C38.00,29.22 43.29,33.53 49.75,38.36 C67.49,51.63 91.44,69.42 101.25,76.62 C106.06,80.16 110.00,83.42 110.00,83.88 C110.00,84.33 103.96,89.80 96.59,96.04 C81.75,108.58 82.90,108.02 54.82,116.08 ZM 141.98 196.00 L 142.00 198.50 L 107.83 198.50 L 108.45 193.00 C109.62,182.49 110.16,180.15 111.54,179.62 C114.06,178.65 138.16,178.76 139.15,179.75 C140.11,180.71 141.94,191.24 141.98,196.00 ZM 107.00 148.49 C107.84,150.71 107.69,150.99 105.73,150.93 C102.58,150.82 89.00,145.99 89.00,144.98 C89.00,144.29 101.97,138.63 102.41,139.12 C103.03,139.82 106.04,145.97 107.00,148.49 ZM 152.92 148.71 C149.39,149.94 145.48,150.96 144.24,150.97 C142.06,151.00 142.03,150.87 143.36,147.75 C146.32,140.84 147.36,139.00 148.31,139.00 C150.62,139.00 160.09,144.22 159.74,145.29 C159.52,145.94 156.46,147.47 152.92,148.71 Z" fill="rgb(113,59,23)"/>
<path d="M 62.37 200.50 C51.51,203.52 41.83,206.00 40.85,206.00 C38.97,206.00 38.69,205.22 30.13,176.22 C26.37,163.46 26.30,162.96 28.36,163.67 C28.70,163.78 28.96,163.88 29.22,163.97 C30.87,164.50 32.70,164.45 54.96,163.76 C56.55,163.71 58.24,163.65 60.04,163.60 L 85.59 162.81 L 93.04 169.04 C97.14,172.47 101.51,175.73 102.75,176.29 C103.99,176.86 105.00,177.63 105.00,178.00 C105.00,179.27 109.26,180.67 110.94,180.03 C109.98,181.08 109.44,184.11 108.46,192.88 L 108.66 190.23 L 109.30 181.96 L 105.40 183.76 C95.07,188.53 85.47,193.49 85.17,194.20 C84.98,194.64 84.22,195.00 83.47,195.00 C82.71,195.00 73.22,197.48 62.37,200.50 ZM 217.52 184.85 C214.03,196.58 211.02,206.27 210.83,206.40 C210.15,206.89 166.18,194.40 164.87,193.34 C164.12,192.74 158.77,189.91 153.00,187.07 C141.90,181.60 139.47,180.00 142.28,180.00 C143.21,180.00 145.21,178.90 146.73,177.56 C148.25,176.21 152.82,172.39 156.87,169.06 L 164.24 163.00 L 173.87 163.11 C179.17,163.17 190.02,163.51 198.00,163.87 C205.98,164.22 214.96,164.19 217.97,163.81 C220.98,163.43 223.54,163.21 223.66,163.33 C223.78,163.44 221.01,173.13 217.52,184.85 ZM 107.00 148.49 C106.04,145.97 103.03,139.82 102.41,139.12 C101.97,138.63 89.00,144.29 89.00,144.98 C89.00,145.27 90.09,145.86 91.73,146.57 C90.56,146.19 88.99,146.01 87.90,146.16 C85.75,146.46 85.53,146.94 85.77,150.72 C85.98,154.16 85.75,154.84 84.51,154.36 C83.67,154.04 82.70,152.59 82.35,151.14 C82.01,149.69 81.26,147.91 80.69,147.19 C79.76,146.02 76.17,139.51 71.33,130.26 C69.70,127.14 69.72,126.93 71.68,124.76 C72.81,123.52 75.34,119.95 77.31,116.82 C81.98,109.41 80.93,108.28 71.94,111.05 C71.82,111.09 71.69,111.13 71.57,111.17 C83.38,107.43 85.60,105.32 96.59,96.04 C102.53,91.01 107.60,86.49 109.35,84.68 C109.70,86.78 109.85,89.22 109.89,92.62 C109.96,97.50 110.52,107.35 111.14,114.50 C111.77,121.65 112.42,133.91 112.60,141.75 C112.88,154.59 112.14,159.17 110.57,154.23 C110.23,153.16 107.93,151.95 103.64,150.58 C104.52,150.78 105.24,150.91 105.73,150.93 C107.69,150.99 107.84,150.71 107.00,148.49 ZM 141.22 152.60 C139.41,153.37 137.75,154.00 137.54,154.00 C136.19,154.00 136.49,146.42 139.31,109.50 C140.11,99.05 140.53,89.03 140.25,87.24 C140.11,86.35 140.12,85.39 140.27,84.36 C141.54,85.83 147.00,90.73 153.50,96.19 C163.49,104.59 165.71,106.77 173.48,109.41 C170.71,108.72 170.00,109.12 170.00,110.64 C170.00,112.52 175.22,121.41 178.29,124.75 L 180.35 127.00 L 175.55 136.25 C170.25,146.46 166.84,151.98 165.85,151.99 C165.49,152.00 164.73,150.65 164.15,149.00 C163.57,147.35 162.57,146.00 161.92,146.00 C161.35,146.00 158.79,146.71 155.60,147.68 C157.89,146.72 159.58,145.76 159.74,145.29 C160.09,144.22 150.62,139.00 148.31,139.00 C147.36,139.00 146.32,140.84 143.36,147.75 C142.03,150.87 142.06,151.00 144.24,150.97 C144.74,150.97 145.69,150.80 146.87,150.51 C144.51,151.32 142.45,152.07 141.22,152.60 ZM 108.93 82.70 C107.44,81.35 104.55,79.05 101.25,76.62 C91.44,69.42 67.49,51.63 49.75,38.36 C43.46,33.66 38.29,29.46 38.01,28.83 C48.76,32.54 89.00,47.40 94.27,49.69 C96.87,50.81 98.22,52.13 98.61,53.91 C99.45,57.78 104.45,71.73 107.28,78.12 C108.01,79.77 108.55,81.20 108.93,82.70 ZM 140.50 83.22 C140.78,82.11 141.21,80.94 141.80,79.74 C145.22,72.69 151.02,56.65 151.01,54.23 C151.00,52.64 151.96,51.53 154.25,50.50 C158.77,48.46 210.48,29.27 214.66,28.06 C213.61,28.53 209.16,31.65 204.23,35.39 C196.00,41.65 166.82,63.32 145.75,78.83 C143.42,80.54 141.41,82.24 140.50,83.22 ZM 215.02 114.86 C212.64,117.69 210.38,120.00 210.01,120.00 C209.95,120.00 209.81,119.98 209.61,119.93 C210.23,119.94 212.65,117.67 215.02,114.86 ZM 126.13 178.95 C132.50,178.93 138.58,179.18 139.15,179.75 C138.66,179.26 132.52,178.99 126.13,178.95 ZM 35.79 28.10 C35.28,28.34 34.74,29.03 34.06,30.45 C34.72,28.90 35.20,28.00 35.39,28.00 C35.44,28.00 35.57,28.03 35.79,28.10 ZM 181.49 111.86 C183.66,112.48 186.13,113.19 189.00,114.01 C190.78,114.51 192.91,115.14 195.04,115.76 C192.89,115.14 190.75,114.54 189.00,114.04 C186.65,113.39 183.89,112.58 181.49,111.86 ZM 214.88 28.00 C214.90,28.00 214.91,28.00 214.92,28.00 C215.44,28.00 218.05,35.03 220.48,42.32 C218.07,35.13 215.48,28.20 214.88,28.00 ZM 40.29 120.00 C40.28,120.00 40.27,120.00 40.25,120.00 C39.84,120.00 37.54,117.72 35.14,114.94 C37.49,117.67 39.78,119.91 40.29,120.00 Z" fill="rgb(220,115,30)"/>
<path d="M 54.82 116.08 C62.11,113.99 67.43,112.48 71.57,111.17 C71.69,111.13 71.82,111.09 71.94,111.05 C80.93,108.28 81.98,109.41 77.31,116.82 C75.34,119.95 72.81,123.52 71.68,124.76 C69.72,126.93 69.70,127.14 71.33,130.26 C76.17,139.51 79.76,146.02 80.69,147.19 C81.26,147.91 82.01,149.69 82.35,151.14 C82.70,152.59 83.67,154.04 84.51,154.36 C85.75,154.84 85.98,154.16 85.77,150.72 C85.53,146.94 85.75,146.46 87.90,146.16 C88.99,146.01 90.56,146.19 91.73,146.57 C94.98,147.97 100.39,149.82 103.64,150.58 C107.93,151.95 110.23,153.16 110.57,154.23 C112.14,159.17 112.88,154.59 112.60,141.75 C112.42,133.91 111.77,121.65 111.14,114.50 C110.52,107.35 109.96,97.50 109.89,92.62 C109.85,89.22 109.70,86.78 109.35,84.68 C109.77,84.24 110.00,83.97 110.00,83.88 C110.00,83.74 109.61,83.32 108.93,82.70 C108.55,81.20 108.01,79.77 107.28,78.12 C104.45,71.73 99.45,57.78 98.61,53.91 C98.23,52.18 96.94,50.89 94.49,49.78 C97.50,50.76 104.23,51.00 124.99,51.00 C140.84,51.00 153.90,50.58 155.20,50.03 C157.56,49.03 169.78,44.45 182.55,39.73 C169.24,44.68 156.40,49.53 154.25,50.50 C151.96,51.53 151.00,52.64 151.01,54.23 C151.02,56.65 145.22,72.69 141.80,79.74 C141.21,80.94 140.78,82.11 140.50,83.22 C140.18,83.57 140.00,83.83 140.00,83.95 C140.00,84.02 140.09,84.16 140.27,84.36 C140.12,85.39 140.11,86.35 140.25,87.24 C140.53,89.03 140.11,99.05 139.31,109.50 C136.49,146.42 136.19,154.00 137.54,154.00 C137.75,154.00 139.41,153.37 141.22,152.60 C142.45,152.07 144.51,151.32 146.87,150.51 C148.60,150.09 150.83,149.44 152.92,148.71 C153.86,148.38 154.77,148.03 155.60,147.68 C158.79,146.71 161.35,146.00 161.92,146.00 C162.57,146.00 163.57,147.35 164.15,149.00 C164.73,150.65 165.49,152.00 165.85,151.99 C166.84,151.98 170.25,146.46 175.55,136.25 L 180.35 127.00 L 178.29 124.75 C175.22,121.41 170.00,112.52 170.00,110.64 C170.00,109.12 170.71,108.72 173.48,109.41 C175.63,110.15 178.21,110.91 181.49,111.86 C183.89,112.58 186.65,113.39 189.00,114.04 C190.75,114.54 192.89,115.14 195.04,115.76 C197.84,116.59 200.62,117.43 202.50,118.01 C205.80,119.03 208.99,119.89 209.59,119.93 C209.81,119.98 209.95,120.00 210.01,120.00 C210.31,120.00 211.78,118.55 213.57,116.54 L 210.08 120.63 L 223.98 163.13 L 217.87 183.81 C214.87,193.94 212.14,202.80 211.33,205.04 C212.35,201.95 214.79,194.02 217.52,184.85 C221.01,173.13 223.78,163.44 223.66,163.33 C223.54,163.21 220.98,163.43 217.97,163.81 C214.96,164.19 205.98,164.22 198.00,163.87 C190.02,163.51 179.17,163.17 173.87,163.11 L 164.24 163.00 L 156.87 169.06 C152.82,172.39 148.25,176.21 146.73,177.56 C145.21,178.90 143.21,180.00 142.28,180.00 C139.47,180.00 141.90,181.60 153.00,187.07 C153.09,187.12 153.19,187.16 153.28,187.21 C149.18,185.24 145.21,183.46 143.63,182.97 L 140.77 182.07 L 141.39 189.49 C140.76,185.00 139.77,180.37 139.15,179.75 C138.58,179.18 132.50,178.93 126.13,178.95 L 126.13 178.95 C119.60,178.92 112.81,179.13 111.54,179.62 C111.32,179.71 111.13,179.83 110.94,180.03 C109.26,180.67 105.00,179.27 105.00,178.00 C105.00,177.63 103.99,176.86 102.75,176.29 C101.51,175.73 97.14,172.47 93.04,169.04 L 85.59 162.81 L 60.04 163.60 C58.24,163.65 56.55,163.71 54.96,163.76 L 54.96 163.76 C32.70,164.45 30.87,164.50 29.22,163.97 C28.96,163.88 28.70,163.78 28.36,163.67 C26.30,162.96 26.37,163.46 30.12,176.18 L 26.19 162.86 L 28.70 155.18 C30.09,150.96 32.57,143.23 34.22,138.00 C35.86,132.77 37.80,126.65 38.52,124.38 L 39.82 120.27 L 36.70 116.69 C38.46,118.62 39.93,120.00 40.25,120.00 C40.27,120.00 40.28,120.00 40.29,120.00 C40.30,120.00 40.31,120.00 40.32,120.00 C40.77,120.00 47.30,118.23 54.82,116.08 ZM 165.11 193.47 C166.95,194.30 177.83,197.54 188.52,200.58 C177.91,197.77 167.15,194.62 165.11,193.47 ZM 89.16 47.66 C76.63,42.84 47.00,31.93 38.01,28.83 C38.01,28.83 38.01,28.83 38.01,28.83 C47.09,31.94 77.18,43.03 89.16,47.66 ZM 141.99 196.67 L 142.14 198.50 L 142.00 198.50 ZM 33.52 113.03 C31.00,110.03 31.14,109.62 32.63,108.52 C31.15,109.61 31.03,110.03 33.52,113.03 ZM 35.79 28.10 C35.57,28.03 35.44,28.00 35.39,28.00 C35.44,28.00 35.57,28.03 35.79,28.10 ZM 33.30 108.00 C33.12,108.16 32.90,108.32 32.64,108.51 C32.90,108.32 33.12,108.16 33.30,108.00 Z" fill="rgb(243,133,30)"/>
<path d="M 0.00 125.00 L 0.00 0.00 L 125.00 0.00 L 250.00 0.00 L 250.00 125.00 L 250.00 250.00 L 125.00 250.00 L 0.00 250.00 L 0.00 125.00 ZM 217.87 183.81 L 223.98 163.13 L 217.03 141.88 L 210.08 120.63 L 214.72 115.19 C219.13,110.03 219.27,109.67 217.50,108.37 C215.70,107.06 215.74,106.88 218.56,103.94 L 221.49 100.88 L 219.21 99.16 L 216.92 97.43 L 220.11 95.08 L 223.29 92.73 L 221.11 91.08 L 218.93 89.44 L 221.96 74.84 C223.63,66.81 225.00,59.26 225.00,58.07 C225.00,55.03 215.94,28.00 214.92,28.00 C214.14,28.00 160.43,47.81 155.20,50.03 C153.90,50.58 140.84,51.00 124.99,51.00 C102.42,51.00 96.44,50.71 93.78,49.51 C88.87,47.29 36.52,28.00 35.39,28.00 C34.86,28.00 32.24,34.66 29.56,42.81 L 24.70 57.62 L 27.97 73.50 L 31.24 89.39 L 29.10 91.12 L 26.97 92.84 L 30.08 95.05 L 33.18 97.26 L 31.10 99.34 L 29.03 101.42 L 31.76 104.28 C34.39,107.04 34.43,107.20 32.63,108.52 C30.85,109.83 30.99,110.17 35.29,115.08 L 39.82 120.27 L 38.52 124.38 C37.80,126.65 35.86,132.77 34.22,138.00 C32.57,143.23 30.09,150.96 28.70,155.18 L 26.19 162.86 L 30.12 176.18 C38.69,205.23 38.97,206.00 40.85,206.00 C41.83,206.00 51.51,203.52 62.37,200.50 C73.22,197.48 82.71,195.00 83.47,195.00 C84.22,195.00 84.98,194.64 85.17,194.20 C85.47,193.49 95.07,188.53 105.40,183.76 L 109.30 181.96 L 108.66 190.23 L 108.03 198.50 L 125.08 198.50 L 142.14 198.50 L 141.45 190.29 L 140.77 182.07 L 143.63 182.97 C147.21,184.09 163.02,191.79 164.87,193.31 C167.26,195.28 210.44,206.71 211.12,205.55 C211.47,204.97 214.50,195.19 217.87,183.81 Z" fill="rgb(253,252,251)"/>
</g>
</svg>