<svg width="32" height="32" viewBox="0 0 318.6 318.6" xmlns="http://www.w3.org/2000/svg">
  <polygon fill="#E2761B" stroke="#E2761B" stroke-width="0.25" stroke-linejoin="round" points="274.1,35.5 174.6,109.4 193,65.8"/>
  <g>
    <polygon fill="#E4761B" stroke="#E4761B" stroke-width="0.25" stroke-linejoin="round" points="44.4,35.5 143.1,110.1 125.6,65.8"/>
    <polygon fill="#E4761B" stroke="#E4761B" stroke-width="0.25" stroke-linejoin="round" points="238.3,206.8 211.8,247.4 268.5,263 284.8,207.7"/>
    <polygon fill="#E4761B" stroke="#E4761B" stroke-width="0.25" stroke-linejoin="round" points="33.9,207.7 50.1,263 106.8,247.4 80.3,206.8"/>
    <polygon fill="#E4761B" stroke="#E4761B" stroke-width="0.25" stroke-linejoin="round" points="103.6,138.2 87.8,162.1 144.1,164.6 142.1,104.1"/>
    <polygon fill="#E4761B" stroke="#E4761B" stroke-width="0.25" stroke-linejoin="round" points="214.9,138.2 175.9,103.4 174.6,164.6 230.8,162.1"/>
    <polygon fill="#E4761B" stroke="#E4761B" stroke-width="0.25" stroke-linejoin="round" points="106.8,247.4 140.6,230.9 111.4,208.1"/>
    <polygon fill="#E4761B" stroke="#E4761B" stroke-width="0.25" stroke-linejoin="round" points="177.9,230.9 211.8,247.4 207.1,208.1"/>
  </g>
  <g>
    <polygon fill="#D7C1B3" stroke="#D7C1B3" stroke-width="0.25" stroke-linejoin="round" points="211.8,247.4 238.3,206.8 207.1,208.1"/>
    <polygon fill="#D7C1B3" stroke="#D7C1B3" stroke-width="0.25" stroke-linejoin="round" points="106.8,247.4 111.4,208.1 80.3,206.8"/>
  </g>
  <polygon fill="#233447" stroke="#233447" stroke-width="0.25" stroke-linejoin="round" points="230.8,162.1 174.6,164.6 179.8,193 207.1,208.1 214.9,138.2"/>
  <polygon fill="#233447" stroke="#233447" stroke-width="0.25" stroke-linejoin="round" points="103.6,138.2 111.4,208.1 138.9,193 144.1,164.6 87.8,162.1"/>
  <g>
    <polygon fill="#CD6116" stroke="#CD6116" stroke-width="0.25" stroke-linejoin="round" points="87.8,162.1 111.4,208.1 103.6,138.2"/>
    <polygon fill="#CD6116" stroke="#CD6116" stroke-width="0.25" stroke-linejoin="round" points="214.9,138.2 207.1,208.1 230.8,162.1"/>
    <polygon fill="#CD6116" stroke="#CD6116" stroke-width="0.25" stroke-linejoin="round" points="144.1,164.6 138.9,193 145.3,218.6 146.9,182.7"/>
    <polygon fill="#CD6116" stroke="#CD6116" stroke-width="0.25" stroke-linejoin="round" points="174.6,164.6 171.9,182.6 173.1,218.6 179.8,193"/>
  </g>
  <polygon fill="#E4751F" stroke="#E4751F" stroke-width="0.25" stroke-linejoin="round" points="179.8,193 173.1,218.6 177.9,230.9 207.1,208.1 214.9,138.2"/>
  <polygon fill="#E4751F" stroke="#E4751F" stroke-width="0.25" stroke-linejoin="round" points="103.6,138.2 111.4,208.1 140.6,230.9 145.3,218.6 138.9,193"/>
  <polygon fill="#F6851B" stroke="#F6851B" stroke-width="0.25" stroke-linejoin="round" points="180.3,262.3 211.8,247.4 177.9,230.9 173.1,218.6 145.3,218.6 140.6,230.9 106.8,247.4 138.3,262.3 159.2,256.2"/>
</svg>
